<?xml version="1.0" encoding="utf-8"?>
<!-- Generator: Adobe Illustrator 23.0.2, SVG Export Plug-In . SVG Version: 6.00 Build 0)  -->
<svg version="1.1" id="Layer_1" xmlns="http://www.w3.org/2000/svg" xmlns:xlink="http://www.w3.org/1999/xlink" x="0px" y="0px"
	 viewBox="0 0 1920 1080" style="enable-background:new 0 0 1920 1080;" xml:space="preserve">
<style type="text/css">
	.st0{clip-path:url(#SVGID_2_);}
	.st1{fill:none;stroke:#E4B0D1;stroke-miterlimit:10;}
	.st2{fill:none;stroke:#7D4F9F;stroke-miterlimit:10;}
	.st3{fill:none;stroke:#DB62A3;stroke-miterlimit:10;}
</style>
<title>background</title>
<g>
	<defs>
		<rect id="SVGID_1_" width="1920" height="1080"/>
	</defs>
	<clipPath id="SVGID_2_">
		<use xlink:href="#SVGID_1_"  style="overflow:visible;"/>
	</clipPath>
	<g class="st0">
		<line class="st1" x1="643.9" y1="163.8" x2="682.2" y2="198.1"/>
		<line class="st1" x1="679.1" y1="161.8" x2="646.4" y2="198.4"/>
		<line class="st2" x1="796.9" y1="1295.1" x2="49.1" y2="863.2"/>
		<line class="st2" x1="2167.2" y1="-74.4" x2="1511.6" y2="580.9"/>
		<circle class="st3" cx="1629.9" cy="297.4" r="177.4"/>
		<circle class="st1" cx="-7.4" cy="460.3" r="172.4"/>
		
			<ellipse transform="matrix(0.1602 -0.9871 0.9871 0.1602 119.1385 1628.6066)" class="st1" cx="1016.7" cy="744.3" rx="65.3" ry="65.3"/>
		<line class="st1" x1="1216.3" y1="918.2" x2="1216.3" y2="969.6"/>
		<line class="st1" x1="1241.2" y1="943.1" x2="1192.2" y2="943.1"/>
		<circle class="st1" cx="1737.4" cy="1092.9" r="77.5"/>
		<line class="st1" x1="1322.2" y1="420.8" x2="1322.2" y2="472.3"/>
		<line class="st1" x1="1347.2" y1="445.8" x2="1298.1" y2="445.8"/>
		<line class="st2" x1="1589.1" y1="921.6" x2="1047.1" y2="1463.4"/>
		<circle class="st3" cx="411.8" cy="143.1" r="46.1"/>
	</g>
</g>
</svg>
