<svg id="Layer_1" data-name="Layer 1" xmlns="http://www.w3.org/2000/svg" viewBox="0 0 238.814 166.497"><defs><style>.cls-1{fill:#fff;}</style></defs><title>space-needle</title><path class="cls-1" d="M292.282,215.508H274.427a4.719,4.719,0,1,1,3.224-8.166.75.75,0,0,1-1.023,1.1,3.22,3.22,0,1,0-2.2,5.569h17.855a3.819,3.819,0,1,0-2.855-6.357.75.75,0,0,1-1.123-1,5.319,5.319,0,1,1,3.978,8.852Z" transform="translate(-130.593 -166.752)"/><path class="cls-1" d="M291.65,206.39l-.049,0a.727.727,0,0,1-.7-.77c.008-.11.012-.16.012-.212a4.747,4.747,0,0,0-9.406-.91.75.75,0,0,1-1.473-.286,6.247,6.247,0,0,1,12.379,1.2c0,.088-.006.174-.012.26A.777.777,0,0,1,291.65,206.39Z" transform="translate(-130.593 -166.752)"/><path class="cls-1" d="M275.264,207.663a.748.748,0,0,1-.692-.463,4.647,4.647,0,0,1-.358-1.794,4.7,4.7,0,0,1,7.828-3.53A.75.75,0,0,1,281.05,203a3.207,3.207,0,0,0-5.093,3.624.75.75,0,0,1-.4.98A.734.734,0,0,1,275.264,207.663Z" transform="translate(-130.593 -166.752)"/><path class="cls-1" d="M227.109,238.241a.75.75,0,0,1,0-1.5,2.58,2.58,0,1,0,0-5.159.75.75,0,0,1,0-1.5,4.08,4.08,0,1,1,0,8.159Z" transform="translate(-130.593 -166.752)"/><path class="cls-1" d="M227.109,238.241H216.984a4.582,4.582,0,1,1,0-9.163,4.539,4.539,0,0,1,2.864,1,.75.75,0,1,1-.936,1.171,3.082,3.082,0,1,0-1.928,5.488h10.125a2.58,2.58,0,1,0,0-5.159,2.549,2.549,0,0,0-1.565.53.75.75,0,1,1-.914-1.19,4.036,4.036,0,0,1,2.479-.84,4.08,4.08,0,1,1,0,8.159Z" transform="translate(-130.593 -166.752)"/><path class="cls-1" d="M226.216,231.719a.75.75,0,0,1-.75-.736,4.226,4.226,0,0,0-8.33-.929.75.75,0,0,1-1.457-.359,5.727,5.727,0,0,1,11.287,1.26.75.75,0,0,1-.736.764Z" transform="translate(-130.593 -166.752)"/><path class="cls-1" d="M270.661,259.9a3.446,3.446,0,0,1,0-6.891.75.75,0,0,1,0,1.5,1.946,1.946,0,0,0,0,3.891.75.75,0,0,1,0,1.5Z" transform="translate(-130.593 -166.752)"/><path class="cls-1" d="M278.858,259.9h-8.2a3.446,3.446,0,0,1,0-6.891,3.408,3.408,0,0,1,2.093.71.75.75,0,0,1-.912,1.19,1.925,1.925,0,0,0-1.181-.4,1.946,1.946,0,0,0,0,3.891h8.2a2.352,2.352,0,1,0,0-4.7,2.324,2.324,0,0,0-1.47.515.75.75,0,1,1-.939-1.169,3.852,3.852,0,1,1,2.409,6.858Z" transform="translate(-130.593 -166.752)"/><path class="cls-1" d="M271.384,254.622h-.014a.75.75,0,0,1-.736-.764,4.779,4.779,0,0,1,9.419-1.051.75.75,0,0,1-1.457.358,3.279,3.279,0,0,0-6.462.722A.75.75,0,0,1,271.384,254.622Z" transform="translate(-130.593 -166.752)"/><path class="cls-1" d="M266.452,190.252h-34a.75.75,0,0,1,0-1.5h34a.75.75,0,0,1,0,1.5Z" transform="translate(-130.593 -166.752)"/><path class="cls-1" d="M264.233,194.252H234.671a.75.75,0,0,1,0-1.5h29.562a.75.75,0,0,1,0,1.5Z" transform="translate(-130.593 -166.752)"/><path class="cls-1" d="M262.452,194.252h-26a.75.75,0,0,1-.727-.568l-1-4a.75.75,0,1,1,1.455-.365l.858,3.433h24.828l.858-3.433a.75.75,0,1,1,1.455.365l-1,4A.75.75,0,0,1,262.452,194.252Z" transform="translate(-130.593 -166.752)"/><path class="cls-1" d="M265.453,190.252a.752.752,0,0,1-.651-.375c-.053-.089-3.482-5.625-15.348-5.625-11.987,0-15.319,5.566-15.351,5.622a.75.75,0,1,1-1.3-.746c.149-.26,3.805-6.376,16.652-6.376s16.5,6.116,16.648,6.377a.75.75,0,0,1-.649,1.123Z" transform="translate(-130.593 -166.752)"/><path class="cls-1" d="M255.2,181.252H243.7a.75.75,0,0,1,0-1.5h11.5a.75.75,0,0,1,0,1.5Z" transform="translate(-130.593 -166.752)"/><path class="cls-1" d="M249.454,180.966a.75.75,0,0,1-.75-.75V167.5a.75.75,0,0,1,1.5,0v12.714A.75.75,0,0,1,249.454,180.966Z" transform="translate(-130.593 -166.752)"/><path class="cls-1" d="M254.2,184.571a.748.748,0,0,1-.5-.19,2.387,2.387,0,0,1-.961-2.168c.21-1.448,1.944-2.3,2.141-2.391a.75.75,0,1,1,.636,1.359c-.389.184-1.219.734-1.294,1.249-.033.241.126.52.475.83a.751.751,0,0,1-.5,1.311Z" transform="translate(-130.593 -166.752)"/><path class="cls-1" d="M244.7,184.571a.75.75,0,0,1-.5-1.311c.349-.31.508-.589.474-.83-.074-.515-.9-1.065-1.295-1.25a.75.75,0,0,1,.637-1.358c.2.093,1.931.943,2.142,2.391a2.39,2.39,0,0,1-.961,2.168A.748.748,0,0,1,244.7,184.571Z" transform="translate(-130.593 -166.752)"/><path class="cls-1" d="M251.452,179.425h-4.1a.75.75,0,0,1,0-1.5h4.1a.75.75,0,0,1,0,1.5Z" transform="translate(-130.593 -166.752)"/><path class="cls-1" d="M249.2,282.752c-1.687,0-3.316-.024-4.842-.068-7.568-.225-10.244-.929-10.354-.958a.751.751,0,0,1-.554-.724v-5a.749.749,0,0,1,.594-.734,67.489,67.489,0,0,1,10.835-.954q1.971-.06,4.321-.062t4.322.062a67.464,67.464,0,0,1,10.834.954.749.749,0,0,1,.594.734v5a.751.751,0,0,1-.554.724c-.11.029-2.786.733-10.353.958C252.519,282.728,250.89,282.752,249.2,282.752Zm-14.25-2.358a64.947,64.947,0,0,0,9.453.791c3.02.088,6.574.088,9.6,0a64.938,64.938,0,0,0,9.451-.791v-3.766a78.165,78.165,0,0,0-9.973-.816q-1.947-.057-4.277-.06t-4.276.06a78.168,78.168,0,0,0-9.974.816Z" transform="translate(-130.593 -166.752)"/><path class="cls-1" d="M264.2,279.252H234.46a.75.75,0,1,1,0-1.5H264.2a.75.75,0,0,1,0,1.5Z" transform="translate(-130.593 -166.752)"/><path class="cls-1" d="M252.929,270.008h-7.438a.75.75,0,0,1,0-1.5h7.438a.75.75,0,1,1,0,1.5Z" transform="translate(-130.593 -166.752)"/><path class="cls-1" d="M252.607,264.008h-6.774a.75.75,0,0,1,0-1.5h6.774a.75.75,0,1,1,0,1.5Z" transform="translate(-130.593 -166.752)"/><path class="cls-1" d="M252.085,258.008h-5.73a.75.75,0,1,1,0-1.5h5.73a.75.75,0,0,1,0,1.5Z" transform="translate(-130.593 -166.752)"/><path class="cls-1" d="M251.82,251.008h-5.2a.75.75,0,0,1,0-1.5h5.2a.75.75,0,0,1,0,1.5Z" transform="translate(-130.593 -166.752)"/><path class="cls-1" d="M251.107,244.008h-3.774a.75.75,0,0,1,0-1.5h3.774a.75.75,0,0,1,0,1.5Z" transform="translate(-130.593 -166.752)"/><path class="cls-1" d="M261.451,290.252a.75.75,0,0,1-.741-.645s-.439-3.065-1.095-7.944a.75.75,0,0,1,1.486-.2c.656,4.871,1.093,7.931,1.093,7.933a.748.748,0,0,1-.636.848A.782.782,0,0,1,261.451,290.252Z" transform="translate(-130.593 -166.752)"/><path class="cls-1" d="M259.541,276.156a.751.751,0,0,1-.743-.654c-1.9-14.605-5.1-40.914-5.1-53,0-17.925,4-29.146,4.045-29.257a.75.75,0,0,1,1.41.512c-.04.11-3.955,11.106-3.955,28.745,0,12,3.184,38.237,5.084,52.807a.749.749,0,0,1-.648.84A.633.633,0,0,1,259.541,276.156Z" transform="translate(-130.593 -166.752)"/><path class="cls-1" d="M254.617,290.252a.75.75,0,0,1-.747-.69s-.236-2.909-.595-7.57c-.155-2-.33-4.321-.52-6.873-1.317-17.713-2.887-41.22-2.887-52.617,0-17.861,1.993-29.024,2.013-29.135a.75.75,0,0,1,1.475.269c-.019.109-1.988,11.153-1.988,28.866,0,11.351,1.568,34.818,2.884,52.505.188,2.552.364,4.871.518,6.87.36,4.656.595,7.563.595,7.564a.75.75,0,0,1-.687.808C254.658,290.251,254.637,290.252,254.617,290.252Z" transform="translate(-130.593 -166.752)"/><path class="cls-1" d="M243.787,290.252c-.02,0-.041,0-.061,0a.75.75,0,0,1-.687-.808s.236-2.908.6-7.564c.153-2,.331-4.318.521-6.87,1.076-14.47,2.88-40.532,2.88-52.5,0-17.728-1.968-28.757-1.987-28.866a.75.75,0,1,1,1.475-.269c.02.111,2.012,11.274,2.012,29.135,0,12.021-1.807,38.126-2.884,52.617-.19,2.552-.368,4.873-.522,6.873-.36,4.661-.6,7.57-.6,7.57A.75.75,0,0,1,243.787,290.252Z" transform="translate(-130.593 -166.752)"/><path class="cls-1" d="M236.953,290.252a.782.782,0,0,1-.107-.008.75.75,0,0,1-.636-.848s.437-3.063,1.093-7.935a.75.75,0,0,1,1.486.2c-.656,4.88-1.094,7.946-1.094,7.946A.751.751,0,0,1,236.953,290.252Z" transform="translate(-130.593 -166.752)"/><path class="cls-1" d="M238.864,276.154a.646.646,0,0,1-.1-.007.749.749,0,0,1-.647-.84c1.9-14.569,5.083-40.8,5.083-52.805,0-17.639-3.915-28.635-3.955-28.745a.75.75,0,0,1,1.41-.512c.041.111,4.045,11.332,4.045,29.257,0,12.087-3.192,38.394-5.1,53A.75.75,0,0,1,238.864,276.154Z" transform="translate(-130.593 -166.752)"/><path class="cls-1" d="M368.657,290.454H131.343a.75.75,0,0,1,0-1.5H368.657a.75.75,0,0,1,0,1.5Z" transform="translate(-130.593 -166.752)"/><path class="cls-1" d="M349.657,296.454H150.343a.75.75,0,0,1,0-1.5H349.657a.75.75,0,0,1,0,1.5Z" transform="translate(-130.593 -166.752)"/><path class="cls-1" d="M343.268,333.248H156.734a.75.75,0,1,1,0-1.5H343.268a.75.75,0,0,1,0,1.5Z" transform="translate(-130.593 -166.752)"/><path class="cls-1" d="M329.657,327.248H170.343a.75.75,0,0,1,0-1.5H329.657a.75.75,0,0,1,0,1.5Z" transform="translate(-130.593 -166.752)"/><path class="cls-1" d="M199.356,307.723a3.12,3.12,0,0,0-2.918-1.308c-1.129,0-2.918.413-2.918,1.954,0,1.226,1.322,1.515,2.946,1.817,1.857.358,3.784.688,3.784,2.767-.013,2.174-2.2,2.7-3.812,2.7a4.333,4.333,0,0,1-3.95-2.091l.661-.331a3.774,3.774,0,0,0,3.289,1.748c1.183,0,3.069-.33,3.069-2.037.014-1.445-1.582-1.761-3.165-2.065-1.762-.344-3.565-.7-3.565-2.477-.041-2.037,2.078-2.671,3.661-2.671a3.7,3.7,0,0,1,3.523,1.639Z" transform="translate(-130.593 -166.752)"/><path class="cls-1" d="M196.438,316a4.679,4.679,0,0,1-4.262-2.285.349.349,0,0,1-.02-.267.343.343,0,0,1,.176-.2l.66-.33a.349.349,0,0,1,.469.154,3.436,3.436,0,0,0,2.977,1.556c.817,0,2.719-.165,2.719-1.687.01-1.086-1.134-1.386-2.881-1.721-1.805-.352-3.849-.751-3.849-2.821a2.526,2.526,0,0,1,.724-1.89,4.671,4.671,0,0,1,3.287-1.13,4.021,4.021,0,0,1,3.814,1.793.352.352,0,0,1,.05.273.344.344,0,0,1-.163.223l-.606.358a.35.35,0,0,1-.475-.117,2.75,2.75,0,0,0-2.625-1.142c-.258,0-2.563.045-2.563,1.6,0,.912,1,1.165,2.66,1.473l.106.021c1.858.357,3.964.761,3.964,3.09C200.588,314.862,199.032,316,196.438,316Zm-3.461-2.3a3.66,3.66,0,0,0,2.259,1.455,3.882,3.882,0,0,1-2.223-1.472Zm4.424-2.97c1.3.306,2.469.813,2.456,2.208A2.094,2.094,0,0,1,198.6,314.9a2.039,2.039,0,0,0,1.3-1.948C199.9,311.566,198.974,311.094,197.4,310.735Zm-2.28-4.5a3.112,3.112,0,0,0-1.47.765,1.859,1.859,0,0,0-.524,1.394,1.666,1.666,0,0,0,1.272,1.622,1.731,1.731,0,0,1-1.229-1.644A2.275,2.275,0,0,1,195.121,306.232Zm2.175-.112a3.561,3.561,0,0,1,1.406.461A3.267,3.267,0,0,0,197.3,306.12Z" transform="translate(-130.593 -166.752)"/><path class="cls-1" d="M203.939,312.168V315.5H203.2v-9.635h4.225c4.184,0,4.184,6.3,0,6.3Zm0-5.615v4.941h3.482c3.207,0,3.207-4.941,0-4.941Z" transform="translate(-130.593 -166.752)"/><path class="cls-1" d="M203.939,315.849H203.2a.351.351,0,0,1-.351-.35v-9.635a.351.351,0,0,1,.351-.35h4.225a3.5,3.5,0,0,1,0,7h-3.132V315.5A.35.35,0,0,1,203.939,315.849Zm-.393-.7h.043v-2.981a.35.35,0,0,0,0-.674v-4.941a.35.35,0,0,1,.26-.339h-.3Zm4.842-8.792a2.747,2.747,0,0,1,1.788,2.666,2.825,2.825,0,0,1-1.293,2.437,2.773,2.773,0,0,0,1.326-2.444A2.7,2.7,0,0,0,208.388,306.357Zm-4.1,4.787h3.132a1.962,1.962,0,0,0,1.539-.651,2.237,2.237,0,0,0,.516-1.47,2,2,0,0,0-2.055-2.12h-3.132Z" transform="translate(-130.593 -166.752)"/><path class="cls-1" d="M221.239,315.5l-1.06-2.367h-5.753L213.38,315.5h-.8l4.322-9.635h.812l4.322,9.635Zm-1.349-3.056L217.3,306.58l-2.587,5.863Z" transform="translate(-130.593 -166.752)"/><path class="cls-1" d="M222.054,315.849h-.815a.349.349,0,0,1-.32-.207l-.967-2.16h-5.3l-.954,2.159a.351.351,0,0,1-.32.208h-.8a.349.349,0,0,1-.319-.493l4.322-9.635a.349.349,0,0,1,.319-.207h.812a.349.349,0,0,1,.319.207l4.282,9.546a.349.349,0,0,1-.262.582Zm-.589-.7h.031l-1.84-4.1.554,1.256a.351.351,0,0,1-.231.48h.2a.349.349,0,0,1,.319.207Zm-8.343,0h.03l.954-2.159a.35.35,0,0,1,.32-.208h.2a.352.352,0,0,1-.248-.434Zm2.13-3.056h4.1l-2.051-4.646Zm2.05-5.863a.35.35,0,0,1,.233.089l-.046-.105h-.359l-.039.088A.343.343,0,0,1,217.3,306.23Z" transform="translate(-130.593 -166.752)"/><path class="cls-1" d="M232.029,314.164a4.96,4.96,0,0,1-3.509,1.445,4.927,4.927,0,1,1,0-9.854,4.959,4.959,0,0,1,3.509,1.444l-.509.441a4.215,4.215,0,0,0-3-1.225,4.253,4.253,0,0,0,0,8.506,4.307,4.307,0,0,0,3.014-1.225Z" transform="translate(-130.593 -166.752)"/><path class="cls-1" d="M228.52,315.959a5,5,0,0,1-5.305-5.22,5.335,5.335,0,0,1,1.476-3.86,5.517,5.517,0,0,1,7.586.073.35.35,0,0,1-.019.512l-.509.44a.349.349,0,0,1-.477-.017,4.1,4.1,0,0,0-5.564-.069,4,4,0,0,0-1.077,2.889,3.673,3.673,0,0,0,3.889,3.864,3.982,3.982,0,0,0,2.769-1.124.347.347,0,0,1,.485,0l.5.468a.346.346,0,0,1,.11.249.351.351,0,0,1-.1.253A5.277,5.277,0,0,1,228.52,315.959Zm-4.11-7.492a4.968,4.968,0,0,0-.5,2.266,4.375,4.375,0,0,0,2.506,4.116,4.456,4.456,0,0,1-2.491-4.136A5.121,5.121,0,0,1,224.41,308.467Z" transform="translate(-130.593 -166.752)"/><path class="cls-1" d="M235.869,310.31h5.643v.674h-5.643v3.8h6.084v.716H235.14v-9.635h6.648v.7h-5.919Z" transform="translate(-130.593 -166.752)"/><path class="cls-1" d="M241.953,315.849H235.14a.35.35,0,0,1-.35-.35v-9.635a.35.35,0,0,1,.35-.35h6.648a.35.35,0,0,1,.35.35v.7a.35.35,0,0,1-.35.35h-5.569v3.044h5.293a.351.351,0,0,1,.351.35v.674a.35.35,0,0,1-.351.35h-5.293v3.1h5.734a.35.35,0,0,1,.35.35v.716A.35.35,0,0,1,241.953,315.849Zm-6.463-.7,6.113-.016h-5.734a.35.35,0,0,1-.35-.35v-3.8a.35.35,0,0,0,0-.674v-3.744a.35.35,0,0,1,.35-.35l5.569,0H235.49Z" transform="translate(-130.593 -166.752)"/><path class="cls-1" d="M250.458,305.864l6.482,7.97v-7.97h.731V315.5h-.289l-6.5-7.955V315.5h-.744v-9.635Z" transform="translate(-130.593 -166.752)"/><path class="cls-1" d="M257.671,315.849h-.289a.35.35,0,0,1-.272-.129l-5.875-7.194V315.5a.35.35,0,0,1-.35.35h-.744a.35.35,0,0,1-.35-.35v-9.635a.35.35,0,0,1,.35-.35h.317a.348.348,0,0,1,.272.13l5.861,7.2v-6.985a.35.35,0,0,1,.349-.35h.731a.35.35,0,0,1,.349.35V315.5A.35.35,0,0,1,257.671,315.849Zm-7.18-.7h.043v-7.605a.35.35,0,0,1,.622-.221l6.165,7.548-.031-8.657v7.62a.35.35,0,0,1-.621.221l-6.178-7.6Z" transform="translate(-130.593 -166.752)"/><path class="cls-1" d="M261.923,310.31h5.643v.674h-5.643v3.8h6.084v.716h-6.813v-9.635h6.648v.7h-5.919Z" transform="translate(-130.593 -166.752)"/><path class="cls-1" d="M268.007,315.849h-6.813a.35.35,0,0,1-.35-.35v-9.635a.35.35,0,0,1,.35-.35h6.648a.35.35,0,0,1,.349.35v.7a.349.349,0,0,1-.349.35h-5.57v3.044h5.294a.35.35,0,0,1,.35.35v.674a.349.349,0,0,1-.35.35h-5.294v3.1h5.735a.35.35,0,0,1,.349.35v.716A.35.35,0,0,1,268.007,315.849Zm-6.463-.7,6.113-.016h-5.734a.35.35,0,0,1-.35-.35v-3.8a.35.35,0,0,0,0-.674v-3.744a.35.35,0,0,1,.35-.35l5.569,0h-5.948Z" transform="translate(-130.593 -166.752)"/><path class="cls-1" d="M271.751,310.31h5.642v.674h-5.642v3.8h6.083v.716H271.02v-9.635h6.649v.7h-5.918Z" transform="translate(-130.593 -166.752)"/><path class="cls-1" d="M277.834,315.849H271.02a.35.35,0,0,1-.349-.35v-9.635a.35.35,0,0,1,.349-.35h6.649a.35.35,0,0,1,.349.35v.7a.349.349,0,0,1-.349.35H272.1v3.044h5.293a.35.35,0,0,1,.35.35v.674a.349.349,0,0,1-.35.35H272.1v3.1h5.734a.35.35,0,0,1,.349.35v.716A.35.35,0,0,1,277.834,315.849Zm-6.464-.7,6.114-.016h-5.733a.35.35,0,0,1-.35-.35v-3.8a.35.35,0,0,0,0-.674v-3.744a.35.35,0,0,1,.35-.35l5.568,0H271.37Z" transform="translate(-130.593 -166.752)"/><path class="cls-1" d="M288.927,310.571a4.626,4.626,0,0,1-4.885,4.928h-3.263v-9.635h3.263A4.626,4.626,0,0,1,288.927,310.571Zm-7.405-4.005v8.217h2.52a4.109,4.109,0,1,0,0-8.217Z" transform="translate(-130.593 -166.752)"/><path class="cls-1" d="M284.042,315.849h-3.263a.35.35,0,0,1-.35-.35v-9.635a.35.35,0,0,1,.35-.35h3.263a4.949,4.949,0,0,1,5.234,5.049,5.289,5.289,0,0,1-1.423,3.816A5.177,5.177,0,0,1,284.042,315.849Zm-2.913-.7h2.913a4.5,4.5,0,0,0,3.31-1.259,4.589,4.589,0,0,0,1.225-3.311,4.285,4.285,0,0,0-4.535-4.365h-2.913Zm2.913-.016h-2.52a.35.35,0,0,1-.349-.35v-8.217a.35.35,0,0,1,.349-.35h2.52a4.3,4.3,0,0,1,4.492,4.348,4.6,4.6,0,0,1-1.246,3.31A4.417,4.417,0,0,1,284.042,315.133Zm-2.17-.7h2.17a3.735,3.735,0,0,0,2.746-1.048,3.906,3.906,0,0,0,1.047-2.807,3.583,3.583,0,0,0-3.793-3.662h-2.17Z" transform="translate(-130.593 -166.752)"/><path class="cls-1" d="M292.725,305.864V314.8h5.423v.7h-6.166v-9.635Z" transform="translate(-130.593 -166.752)"/><path class="cls-1" d="M298.148,315.849h-6.166a.35.35,0,0,1-.349-.35v-9.635a.35.35,0,0,1,.349-.35h.743a.35.35,0,0,1,.35.35v8.583h5.073a.349.349,0,0,1,.35.35v.7A.35.35,0,0,1,298.148,315.849Zm-5.816-.7,5.467,0h-5.074a.35.35,0,0,1-.349-.35v-8.583h-.044Z" transform="translate(-130.593 -166.752)"/><path class="cls-1" d="M301.658,310.31H307.3v.674h-5.644v3.8h6.083v.716h-6.813v-9.635h6.649v.7h-5.919Z" transform="translate(-130.593 -166.752)"/><path class="cls-1" d="M307.741,315.849h-6.813a.35.35,0,0,1-.349-.35v-9.635a.35.35,0,0,1,.349-.35h6.649a.35.35,0,0,1,.35.35v.7a.35.35,0,0,1-.35.35h-5.569v3.044H307.3a.35.35,0,0,1,.349.35v.674a.349.349,0,0,1-.349.35h-5.294v3.1h5.733a.35.35,0,0,1,.35.35v.716A.35.35,0,0,1,307.741,315.849Zm-6.463-.7,6.113-.016h-5.733a.35.35,0,0,1-.35-.35v-3.8a.35.35,0,0,0,0-.674v-3.744a.35.35,0,0,1,.35-.35l5.569,0h-5.949Z" transform="translate(-130.593 -166.752)"/><path class="cls-1" d="M181.728,310.866a2,2,0,1,1-2-2A2,2,0,0,1,181.728,310.866Z" transform="translate(-130.593 -166.752)"/><circle class="cls-1" cx="189.681" cy="144.114" r="2"/></svg>