<svg id="Layer_1" data-name="Layer 1" xmlns="http://www.w3.org/2000/svg" viewBox="0 0 267.977 118.82"><defs><style>.cls-1{fill:#fff;}</style></defs><title>sydney-opera-house</title><path class="cls-1" d="M276.976,207.319H259.122a4.969,4.969,0,1,1,3.394-8.6,1,1,0,0,1-1.365,1.462,2.97,2.97,0,1,0-2.029,5.137h17.854a3.569,3.569,0,1,0-2.668-5.941,1,1,0,1,1-1.5-1.328,5.569,5.569,0,1,1,4.164,9.269Z" transform="translate(-116.417 -190.47)"/><path class="cls-1" d="M276.345,198.191h-.056a.972.972,0,0,1-.942-1.017l.012-.207a4.5,4.5,0,0,0-8.911-.861,1,1,0,1,1-1.963-.382,6.5,6.5,0,0,1,12.874,1.243c0,.087,0,.17-.01.254A1.036,1.036,0,0,1,276.345,198.191Z" transform="translate(-116.417 -190.47)"/><path class="cls-1" d="M259.958,199.474a1,1,0,0,1-.923-.619,4.925,4.925,0,0,1-.377-1.889,4.953,4.953,0,0,1,8.244-3.717,1,1,0,0,1-1.322,1.5,2.926,2.926,0,0,0-1.952-.751,2.964,2.964,0,0,0-2.746,4.094,1,1,0,0,1-.542,1.307A1.012,1.012,0,0,1,259.958,199.474Z" transform="translate(-116.417 -190.47)"/><path class="cls-1" d="M323.878,226.331a1,1,0,0,1,0-2,2.329,2.329,0,1,0,0-4.658,1,1,0,1,1,0-2,4.329,4.329,0,1,1,0,8.658Z" transform="translate(-116.417 -190.47)"/><path class="cls-1" d="M323.878,226.331H313.753a4.831,4.831,0,1,1,3.021-8.6,1,1,0,0,1-1.25,1.561,2.8,2.8,0,0,0-1.771-.62,2.831,2.831,0,1,0,0,5.662h10.125a2.329,2.329,0,1,0,0-4.658,2.3,2.3,0,0,0-1.412.478,1,1,0,1,1-1.218-1.586,4.28,4.28,0,0,1,2.63-.892,4.329,4.329,0,1,1,0,8.658Z" transform="translate(-116.417 -190.47)"/><path class="cls-1" d="M322.986,219.81a1,1,0,0,1-1-.981,3.977,3.977,0,0,0-7.838-.875,1,1,0,1,1-1.941-.478,5.977,5.977,0,0,1,11.779,1.315,1,1,0,0,1-.981,1.019Z" transform="translate(-116.417 -190.47)"/><path class="cls-1" d="M166.446,204.718a3.7,3.7,0,1,1,0-7.391,1,1,0,1,1,0,2,1.7,1.7,0,1,0,0,3.391,1,1,0,0,1,0,2Z" transform="translate(-116.417 -190.47)"/><path class="cls-1" d="M174.643,204.718h-8.2a3.7,3.7,0,1,1,0-7.391,3.657,3.657,0,0,1,2.245.762,1,1,0,0,1-1.217,1.586,1.679,1.679,0,0,0-1.028-.348,1.7,1.7,0,1,0,0,3.391h8.2a2.1,2.1,0,1,0,0-4.2,2.067,2.067,0,0,0-1.313.461,1,1,0,0,1-1.252-1.561,4.1,4.1,0,1,1,2.565,7.3Z" transform="translate(-116.417 -190.47)"/><path class="cls-1" d="M167.169,199.439h-.019a1,1,0,0,1-.982-1.019,5.03,5.03,0,0,1,9.914-1.106,1,1,0,0,1-1.944.478,3.029,3.029,0,0,0-5.97.666A1,1,0,0,1,167.169,199.439Z" transform="translate(-116.417 -190.47)"/><path class="cls-1" d="M167.207,283.515a3.12,3.12,0,0,0-2.918-1.308c-1.128,0-2.917.413-2.917,1.954,0,1.226,1.321,1.515,2.945,1.818,1.858.357,3.784.687,3.784,2.766-.014,2.174-2.2,2.7-3.812,2.7a4.333,4.333,0,0,1-3.95-2.091l.66-.33a3.776,3.776,0,0,0,3.29,1.747c1.184,0,3.07-.33,3.07-2.036.014-1.446-1.583-1.762-3.166-2.066-1.762-.344-3.565-.7-3.565-2.476-.041-2.038,2.079-2.671,3.661-2.671a3.7,3.7,0,0,1,3.523,1.638Z" transform="translate(-116.417 -190.47)"/><path class="cls-1" d="M164.289,291.843a4.729,4.729,0,0,1-4.307-2.313.4.4,0,0,1-.023-.3.406.406,0,0,1,.2-.232l.661-.33a.4.4,0,0,1,.535.177,3.382,3.382,0,0,0,2.932,1.528c.8,0,2.669-.16,2.669-1.636.01-1.047-1.119-1.342-2.84-1.672s-3.89-.76-3.89-2.87a2.576,2.576,0,0,1,.738-1.925,4.721,4.721,0,0,1,3.323-1.147,4.065,4.065,0,0,1,3.856,1.817.4.4,0,0,1-.13.566l-.6.357a.4.4,0,0,1-.543-.132,2.708,2.708,0,0,0-2.582-1.119c-.254,0-2.514.044-2.514,1.554,0,.807.772,1.08,2.619,1.424l.108.022c1.876.359,4,.767,4,3.138C168.49,290.686,166.915,291.843,164.289,291.843Z" transform="translate(-116.417 -190.47)"/><path class="cls-1" d="M173.552,287.438l-3.758-5.768v-.014h.868l3.261,5.066,3.277-5.066h.866v.014l-3.771,5.768v3.853h-.743Z" transform="translate(-116.417 -190.47)"/><path class="cls-1" d="M174.3,291.69h-.743a.4.4,0,0,1-.4-.4v-3.735l-3.692-5.668a.4.4,0,0,1-.065-.218.411.411,0,0,1,.4-.413h.868a.4.4,0,0,1,.336.183l2.926,4.543,2.94-4.544a.4.4,0,0,1,.336-.182h.866a.4.4,0,0,1,.4.4.456.456,0,0,1-.064.233l-3.707,5.668v3.734A.4.4,0,0,1,174.3,291.69Z" transform="translate(-116.417 -190.47)"/><path class="cls-1" d="M188.871,286.363a4.626,4.626,0,0,1-4.886,4.928h-3.263v-9.635h3.263A4.627,4.627,0,0,1,188.871,286.363Zm-7.405-4v8.217h2.519a4.109,4.109,0,1,0,0-8.217Z" transform="translate(-116.417 -190.47)"/><path class="cls-1" d="M183.985,291.69h-3.263a.4.4,0,0,1-.4-.4v-9.635a.4.4,0,0,1,.4-.4h3.263a5.054,5.054,0,0,1,5.286,5.1,5.338,5.338,0,0,1-1.439,3.851A5.224,5.224,0,0,1,183.985,291.69Zm-2.119-1.515h2.119a3.689,3.689,0,0,0,2.71-1.033,3.852,3.852,0,0,0,1.033-2.771,3.534,3.534,0,0,0-3.743-3.612h-2.119Z" transform="translate(-116.417 -190.47)"/><path class="cls-1" d="M192.256,281.656l6.483,7.97v-7.97h.729v9.635h-.289l-6.5-7.955v7.955h-.744v-9.635Z" transform="translate(-116.417 -190.47)"/><path class="cls-1" d="M199.468,291.69h-.289a.393.393,0,0,1-.309-.146l-5.788-7.086v6.833a.4.4,0,0,1-.4.4h-.744a.4.4,0,0,1-.4-.4v-9.635a.4.4,0,0,1,.4-.4h.317a.4.4,0,0,1,.311.146l5.772,7.1v-6.845a.4.4,0,0,1,.4-.4h.729a.4.4,0,0,1,.4.4v9.635A.4.4,0,0,1,199.468,291.69Zm-.812-1.673.412.506v-.67a.4.4,0,0,1-.2.15A.4.4,0,0,1,198.656,290.017Zm-6.317-7.624v.737a.4.4,0,0,1,.209-.171.391.391,0,0,1,.246-.007Z" transform="translate(-116.417 -190.47)"/><path class="cls-1" d="M203.721,286.1h5.644v.673h-5.644v3.8H209.8v.716h-6.812v-9.635h6.648v.7h-5.919Z" transform="translate(-116.417 -190.47)"/><path class="cls-1" d="M209.8,291.69h-6.812a.4.4,0,0,1-.4-.4v-9.635a.4.4,0,0,1,.4-.4h6.648a.4.4,0,0,1,.4.4v.7a.4.4,0,0,1-.4.4h-5.519V285.7h5.244a.4.4,0,0,1,.4.4v.673a.4.4,0,0,1-.4.4h-5.244v3H209.8a.4.4,0,0,1,.4.4v.716A.4.4,0,0,1,209.8,291.69Z" transform="translate(-116.417 -190.47)"/><path class="cls-1" d="M216.039,287.438l-3.757-5.768v-.014h.867l3.262,5.066,3.276-5.066h.866v.014l-3.77,5.768v3.853h-.744Z" transform="translate(-116.417 -190.47)"/><path class="cls-1" d="M216.783,291.69h-.744a.4.4,0,0,1-.4-.4v-3.735l-3.692-5.668a.4.4,0,0,1-.065-.218.411.411,0,0,1,.4-.413h.867a.4.4,0,0,1,.337.183l2.926,4.543,2.939-4.544a.4.4,0,0,1,.336-.182h.866a.4.4,0,0,1,.4.4.448.448,0,0,1-.065.233l-3.706,5.668v3.734A.4.4,0,0,1,216.783,291.69Z" transform="translate(-116.417 -190.47)"/><path class="cls-1" d="M237.744,286.487a4.86,4.86,0,1,1-9.717-.027,4.86,4.86,0,1,1,9.717.027Zm-8.989-.013a4.139,4.139,0,1,0,8.273,0,4.139,4.139,0,1,0-8.273,0Z" transform="translate(-116.417 -190.47)"/><path class="cls-1" d="M232.885,291.857a5.113,5.113,0,0,1-5.259-5.4,5.035,5.035,0,0,1,5.259-5.355,5.155,5.155,0,0,1,3.757,1.443,5.467,5.467,0,0,1,1.5,3.941A5.118,5.118,0,0,1,232.885,291.857Zm0-9.264a3.653,3.653,0,0,0-2.667,1,3.986,3.986,0,0,0-1.062,2.875,3.739,3.739,0,1,0,3.729-3.879Z" transform="translate(-116.417 -190.47)"/><path class="cls-1" d="M241.624,287.96v3.331h-.743v-9.635h4.226c4.183,0,4.183,6.3,0,6.3Zm0-5.615v4.941h3.483c3.207,0,3.207-4.941,0-4.941Z" transform="translate(-116.417 -190.47)"/><path class="cls-1" d="M241.624,291.69h-.743a.4.4,0,0,1-.4-.4v-9.635a.4.4,0,0,1,.4-.4h4.226a3.552,3.552,0,0,1,0,7.1h-3.082v2.931A.4.4,0,0,1,241.624,291.69Zm.4-4.8h3.082a1.916,1.916,0,0,0,1.5-.633,2.19,2.19,0,0,0,.5-1.438,1.956,1.956,0,0,0-2-2.07h-3.082Z" transform="translate(-116.417 -190.47)"/><path class="cls-1" d="M251.988,286.1h5.643v.673h-5.643v3.8h6.084v.716h-6.813v-9.635h6.648v.7h-5.919Z" transform="translate(-116.417 -190.47)"/><path class="cls-1" d="M258.072,291.69h-6.813a.4.4,0,0,1-.4-.4v-9.635a.4.4,0,0,1,.4-.4h6.648a.4.4,0,0,1,.4.4v.7a.4.4,0,0,1-.4.4h-5.519V285.7h5.243a.4.4,0,0,1,.4.4v.673a.4.4,0,0,1-.4.4h-5.243v3h5.684a.4.4,0,0,1,.4.4v.716A.4.4,0,0,1,258.072,291.69Z" transform="translate(-116.417 -190.47)"/><path class="cls-1" d="M268.78,291.291H267.8l-3.33-3.647h-2.629v3.647H261.1v-9.635h4.24a2.978,2.978,0,0,1,3.165,3,2.843,2.843,0,0,1-3.124,2.946Zm-6.937-4.35h3.413a2.154,2.154,0,0,0,2.437-2.3,2.221,2.221,0,0,0-2.354-2.3h-3.5Z" transform="translate(-116.417 -190.47)"/><path class="cls-1" d="M268.8,291.69h-1a.4.4,0,0,1-.3-.129l-3.212-3.517h-2.052v3.247a.4.4,0,0,1-.4.4H261.1a.4.4,0,0,1-.4-.4v-9.635a.4.4,0,0,1,.4-.4h4.24a3.389,3.389,0,0,1,3.565,3.4,3.157,3.157,0,0,1-2.68,3.275l2.786,3.022a.4.4,0,0,1-.21.74Zm-6.557-5.148h3.013c1.339,0,2.024-.641,2.036-1.9a1.9,1.9,0,0,0-.523-1.358,1.956,1.956,0,0,0-1.43-.537h-3.1Zm5.821-2.326a2.829,2.829,0,0,1,.028.433,3.233,3.233,0,0,1-.177,1.062,2.766,2.766,0,0,0,.19-1.05A2.911,2.911,0,0,0,268.064,284.216Z" transform="translate(-116.417 -190.47)"/><path class="cls-1" d="M279.06,291.291,278,288.924h-5.753l-1.046,2.367h-.8l4.321-9.635h.812l4.322,9.635Zm-1.348-3.056-2.588-5.863-2.587,5.863Z" transform="translate(-116.417 -190.47)"/><path class="cls-1" d="M279.878,291.69h-.818a.4.4,0,0,1-.365-.236l-.953-2.131h-5.233l-.941,2.129a.4.4,0,0,1-.366.238h-.8a.4.4,0,0,1-.365-.562l4.322-9.635a.4.4,0,0,1,.364-.236h.812a.4.4,0,0,1,.365.236l4.276,9.533a.4.4,0,0,1-.3.664Zm-6.727-3.855H277.1l-1.974-4.473Z" transform="translate(-116.417 -190.47)"/><path class="cls-1" d="M294.378,291.291v-4.377H288.24v4.377H287.5v-9.635h.742v4.584h6.138v-4.584h.745v9.635Z" transform="translate(-116.417 -190.47)"/><path class="cls-1" d="M295.123,291.69h-.745a.4.4,0,0,1-.4-.4v-3.977H288.64v3.977a.4.4,0,0,1-.4.4H287.5a.4.4,0,0,1-.4-.4v-9.635a.4.4,0,0,1,.4-.4h.742a.4.4,0,0,1,.4.4v4.185h5.339v-4.185a.4.4,0,0,1,.4-.4h.745a.4.4,0,0,1,.4.4v9.635A.4.4,0,0,1,295.123,291.69Z" transform="translate(-116.417 -190.47)"/><path class="cls-1" d="M307.921,286.487a4.86,4.86,0,1,1-9.716-.027,4.859,4.859,0,1,1,9.716.027Zm-8.987-.013a4.139,4.139,0,1,0,8.273,0,4.139,4.139,0,1,0-8.273,0Z" transform="translate(-116.417 -190.47)"/><path class="cls-1" d="M303.064,291.857a5.113,5.113,0,0,1-5.26-5.4,5.036,5.036,0,0,1,5.26-5.355,5.154,5.154,0,0,1,3.756,1.443,5.471,5.471,0,0,1,1.5,3.941A5.118,5.118,0,0,1,303.064,291.857Zm0-9.264a3.652,3.652,0,0,0-2.668,1,4,4,0,0,0-1.063,2.875,3.739,3.739,0,1,0,3.731-3.879Z" transform="translate(-116.417 -190.47)"/><path class="cls-1" d="M318.437,281.656v5.988a3.69,3.69,0,1,1-7.377,0v-5.988h.729v5.988a2.962,2.962,0,1,0,5.918,0v-5.988Z" transform="translate(-116.417 -190.47)"/><path class="cls-1" d="M314.744,291.827a4,4,0,0,1-4.084-4.183v-5.988a.4.4,0,0,1,.4-.4h.729a.4.4,0,0,1,.4.4v5.988a2.563,2.563,0,1,0,5.119,0v-5.988a.4.4,0,0,1,.4-.4h.73a.4.4,0,0,1,.4.4v5.988A4,4,0,0,1,314.744,291.827Z" transform="translate(-116.417 -190.47)"/><path class="cls-1" d="M328.085,283.515a3.12,3.12,0,0,0-2.918-1.308c-1.128,0-2.918.413-2.918,1.954,0,1.226,1.322,1.515,2.946,1.818,1.857.357,3.785.687,3.785,2.766-.014,2.174-2.2,2.7-3.813,2.7a4.333,4.333,0,0,1-3.95-2.091l.661-.33a3.776,3.776,0,0,0,3.289,1.747c1.184,0,3.069-.33,3.069-2.036.013-1.446-1.582-1.762-3.165-2.066-1.762-.344-3.565-.7-3.565-2.476-.042-2.038,2.078-2.671,3.661-2.671a3.7,3.7,0,0,1,3.524,1.638Z" transform="translate(-116.417 -190.47)"/><path class="cls-1" d="M325.167,291.843a4.726,4.726,0,0,1-4.306-2.313.4.4,0,0,1-.024-.3.4.4,0,0,1,.2-.232l.66-.33a.4.4,0,0,1,.536.177,3.382,3.382,0,0,0,2.932,1.528c.8,0,2.669-.16,2.669-1.636.01-1.047-1.118-1.342-2.84-1.672s-3.889-.76-3.889-2.87a2.572,2.572,0,0,1,.738-1.925,4.718,4.718,0,0,1,3.322-1.147,4.065,4.065,0,0,1,3.856,1.817.406.406,0,0,1,.058.311.4.4,0,0,1-.187.255l-.605.357a.4.4,0,0,1-.543-.132,2.71,2.71,0,0,0-2.584-1.119c-.252,0-2.512.044-2.512,1.554,0,.807.771,1.08,2.618,1.424l.106.022c1.877.359,4,.767,4,3.138C329.367,290.686,327.792,291.843,325.167,291.843Z" transform="translate(-116.417 -190.47)"/><path class="cls-1" d="M332.654,286.1H338.3v.673h-5.643v3.8h6.084v.716h-6.813v-9.635h6.648v.7h-5.919Z" transform="translate(-116.417 -190.47)"/><path class="cls-1" d="M338.738,291.69h-6.813a.4.4,0,0,1-.4-.4v-9.635a.4.4,0,0,1,.4-.4h6.648a.4.4,0,0,1,.4.4v.7a.4.4,0,0,1-.4.4h-5.519V285.7H338.3a.4.4,0,0,1,.4.4v.673a.4.4,0,0,1-.4.4h-5.243v3h5.684a.4.4,0,0,1,.4.4v.716A.4.4,0,0,1,338.738,291.69Z" transform="translate(-116.417 -190.47)"/><path class="cls-1" d="M383.394,266.5H117.417a1,1,0,0,1,0-2H383.394a1,1,0,0,1,0,2Z" transform="translate(-116.417 -190.47)"/><path class="cls-1" d="M370.063,272.5H130.748a1,1,0,0,1,0-2H370.063a1,1,0,0,1,0,2Z" transform="translate(-116.417 -190.47)"/><path class="cls-1" d="M373.674,309.29H127.138a1,1,0,1,1,0-2H373.674a1,1,0,0,1,0,2Z" transform="translate(-116.417 -190.47)"/><path class="cls-1" d="M360.063,303.29H140.748a1,1,0,0,1,0-2H360.063a1,1,0,0,1,0,2Z" transform="translate(-116.417 -190.47)"/><path class="cls-1" d="M150.078,286.241a2.5,2.5,0,1,1-2.5-2.5A2.5,2.5,0,0,1,150.078,286.241Z" transform="translate(-116.417 -190.47)"/><circle class="cls-1" cx="234.678" cy="95.771" r="2.5"/><path class="cls-1" d="M359.463,259.206H141.347a1,1,0,1,1,0-2H359.463a1,1,0,1,1,0,2Z" transform="translate(-116.417 -190.47)"/><path class="cls-1" d="M162.417,259.206a1,1,0,0,1-.441-.1l-11.532-5.7v4.8a1,1,0,0,1-2,0V251.8a1,1,0,0,1,1.442-.9l12.975,6.409a1,1,0,0,1-.444,1.9Z" transform="translate(-116.417 -190.47)"/><path class="cls-1" d="M221.509,255.3a1,1,0,0,1-.631-1.777l30.793-24.97c-15.614-30.309-41.1-34.732-47.4-35.365a296.662,296.662,0,0,1,13.078,61.028,1,1,0,0,1-1.994.166A293.988,293.988,0,0,0,201.9,192.4a1,1,0,0,1,.962-1.322c.325.006,32.653.9,50.966,37.287a1,1,0,0,1-.264,1.227l-31.422,25.479A1,1,0,0,1,221.509,255.3Z" transform="translate(-116.417 -190.47)"/><path class="cls-1" d="M278.878,255.3a1,1,0,0,1-.874-1.484l7.2-13.023a1,1,0,1,1,1.75.968l-7.2,13.022A1,1,0,0,1,278.878,255.3Z" transform="translate(-116.417 -190.47)"/><path class="cls-1" d="M273.876,255.3a1,1,0,0,1-.772-.365l-20.946-25.48a1,1,0,0,1,.124-1.4c.184-.157,18.686-15.575,45.6-8.649a1,1,0,0,1,.626,1.452l-8.028,14.518a1,1,0,1,1-1.75-.968l7.395-13.374a51.7,51.7,0,0,0-41.773,7.942l20.292,24.684a1,1,0,0,1-.138,1.407A.988.988,0,0,1,273.876,255.3Z" transform="translate(-116.417 -190.47)"/><path class="cls-1" d="M248.865,251.233a.954.954,0,0,1-.276-.039l-16.5-4.736a1,1,0,0,1,.553-1.922l16.286,4.674,18.867-3.1a1,1,0,1,1,.325,1.973l-19.089,3.141A.982.982,0,0,1,248.865,251.233Z" transform="translate(-116.417 -190.47)"/><path class="cls-1" d="M248.865,251.233h-.028a1,1,0,0,1-.972-1.026A71.628,71.628,0,0,1,252,228.457a1,1,0,0,1,1.865.722,71.015,71.015,0,0,0-4,21.082A1,1,0,0,1,248.865,251.233Z" transform="translate(-116.417 -190.47)"/><path class="cls-1" d="M188.681,252.8a1,1,0,0,1-1-1,174.125,174.125,0,0,0-5.9-43.022,1,1,0,0,1,.163-.884.9.9,0,0,1,.807-.4,58.256,58.256,0,0,1,27.436,7.405,1,1,0,0,1-1.043,1.707,57.442,57.442,0,0,0-25.084-7.081,177.324,177.324,0,0,1,5.621,42.272A1,1,0,0,1,188.681,252.8Z" transform="translate(-116.417 -190.47)"/><path class="cls-1" d="M166.092,245.372a1,1,0,0,1-.946-.677L157.1,221.169a1,1,0,0,1,.7-1.293c13.733-3.473,27.8,1.326,28.4,1.531a1,1,0,0,1-.657,1.89c-.136-.047-13.369-4.554-26.189-1.732l7.694,22.483a1,1,0,0,1-.624,1.269A.958.958,0,0,1,166.092,245.372Z" transform="translate(-116.417 -190.47)"/><path class="cls-1" d="M312.332,259.206a1.03,1.03,0,0,1-.24-.029L296.421,255.3H207.44a.99.99,0,0,1-.3-.047l-7.826-2.453H188.681a.991.991,0,0,1-.43-.1l-15.428-7.328h-6.317l-3.381,3.381a1,1,0,0,1-.707.293h-9.027v4.207a1,1,0,0,1-2,0v-5.207a1,1,0,0,1,1-1H162l3.381-3.381a1,1,0,0,1,.707-.293h6.956a1.015,1.015,0,0,1,.43.1l15.429,7.33h10.56a1.053,1.053,0,0,1,.3.045l7.826,2.455h88.95a1.032,1.032,0,0,1,.241.029l15.284,3.783,26.867-23.363c-19.16-3.723-34,6.49-34.156,6.6a1,1,0,0,1-1.151-1.637,49.369,49.369,0,0,1,37.7-6.486,1,1,0,0,1,.421,1.726l-28.762,25.013A1,1,0,0,1,312.332,259.206Z" transform="translate(-116.417 -190.47)"/><path class="cls-1" d="M296.544,255.3a1.03,1.03,0,0,1-.261-.035,1,1,0,0,1-.705-1.226l1.094-4.063a1,1,0,0,1,1.085-.733l7.729.932a19.255,19.255,0,0,0-1.974-9.834c-10.193-3.674-16.606-4.836-19.47-5.2l9.638,18.7a1,1,0,1,1-1.777.916l-10.474-20.322a1,1,0,0,1,.041-.989.926.926,0,0,1,.87-.468c.294.006,7.37.224,22.2,5.61a1,1,0,0,1,.512.417,20.79,20.79,0,0,1,2.33,12.4,1,1,0,0,1-1.113.88l-7.9-.951-.869,3.228A1,1,0,0,1,296.544,255.3Z" transform="translate(-116.417 -190.47)"/><path class="cls-1" d="M309.38,258.476a1,1,0,0,1-.9-.566l-2.987-6.186a1,1,0,1,1,1.8-.87l2.988,6.186a1,1,0,0,1-.9,1.436Z" transform="translate(-116.417 -190.47)"/><path class="cls-1" d="M343.753,259.206a1,1,0,0,1-.785-.381l-3.623-4.6-10.564-4a1,1,0,0,1-.646-.936v-5.7a1,1,0,0,1,2,0v5.01l10.179,3.849a1.009,1.009,0,0,1,.432.318l3.793,4.816a1,1,0,0,1-.786,1.618Z" transform="translate(-116.417 -190.47)"/><path class="cls-1" d="M211.152,255.3a1,1,0,0,1-.9-.572l-2.828-5.968-11.878-2.143-2.717,5.618a1,1,0,1,1-1.8-.871l3.048-6.3a1.006,1.006,0,0,1,1.078-.549l13.131,2.368a1,1,0,0,1,.726.556l3.049,6.432a1,1,0,0,1-.476,1.332A.989.989,0,0,1,211.152,255.3Z" transform="translate(-116.417 -190.47)"/><path class="cls-1" d="M153,248.864a.993.993,0,0,1-.765-.357l-1.988-2.367a1,1,0,0,1,.221-1.482,29.357,29.357,0,0,1,14.653-4.116h0a1,1,0,0,1,0,2,28.064,28.064,0,0,0-12.579,3.229l1.217,1.451a1,1,0,0,1-.766,1.642Z" transform="translate(-116.417 -190.47)"/></svg>